<svg width="132" height="132" viewBox="0 0 132 132" fill="none" xmlns="http://www.w3.org/2000/svg">
<g clip-path="url(#clip0_6_33)">
<path d="M75.163 7.85953L112.288 29.7495C112.655 29.9695 112.985 30.2134 113.278 30.481L113.327 30.525L113.911 30.9375C115.973 32.4828 117.674 34.4596 118.894 36.7299C120.113 39.0003 120.823 41.5096 120.973 44.0825L121 45.199V85.261C121 91.7235 117.464 97.669 112.074 100.623L74.6515 124.284C69.2615 127.243 62.7385 127.243 57.0515 124.108L20.229 100.804C17.4405 99.2762 15.1131 97.0281 13.4898 94.2941C11.8664 91.5602 11.0066 88.4406 11 85.261V45.1935C10.9975 42.0438 11.8377 38.9507 13.4334 36.2351C15.0291 33.5195 17.3222 31.2802 20.075 29.7495L57.3375 7.77703C60.0708 6.27754 63.1407 5.49834 66.2582 5.51277C69.3757 5.5272 72.4382 6.3348 75.1575 7.85953M71.6375 37.246C69.9666 36.2847 68.0753 35.7723 66.1476 35.7588C64.22 35.7453 62.3217 36.2312 60.6375 37.169L44.011 47.091C42.3298 48.0526 40.9338 49.4431 39.9656 51.1205C38.9974 52.7979 38.4916 54.7022 38.5 56.639V74.668C38.499 76.632 39.0239 78.5604 40.0201 80.253C41.0163 81.9455 42.4475 83.3405 44.165 84.293L60.368 94.688C63.9815 96.7065 68.013 96.7065 71.335 94.8695L88.132 84.117C91.333 82.346 93.5 78.661 93.5 74.6625V56.639L93.4725 55.737C93.3577 54.2589 92.9453 52.8192 92.2601 51.5045C91.5748 50.1898 90.6309 49.0272 89.485 48.0865L88.979 47.7015L88.671 47.443C88.5019 47.3156 88.3256 47.1981 88.143 47.091L71.6375 37.246Z" fill="#B87EFB"/>
</g>
<defs>
<clipPath id="clip0_6_33">
<rect width="132" height="132" fill="white"/>
</clipPath>
</defs>
</svg>
