<svg width="728" height="218" viewBox="0 0 728 218" fill="none" xmlns="http://www.w3.org/2000/svg">
<path d="M61.2 140.75C41.4 140.75 26.25 136.2 15.75 127.1C5.25 117.9 1.78814e-07 104.3 1.78814e-07 86.3C1.78814e-07 68.4 5.25 54.85 15.75 45.65C26.25 36.45 41.4 31.9 61.2 32L115.2 32.3V51.5H62.85C49.85 51.5 40.2 54.25 33.9 59.75C27.6 65.25 24.45 74.1 24.45 86.3C24.45 98.5 27.6 107.4 33.9 113C40.2 118.5 49.85 121.25 62.85 121.25H116.7V140.75H61.2ZM149.684 140V32.75H173.684V76.7H249.284V32.75H273.284V140H249.284V96.2H173.684V140H149.684Z" fill="#0A1128"/>
<path d="M449 140V32.75H538.85C549.95 32.75 558.55 35.55 564.65 41.15C570.85 46.75 573.95 55.25 573.95 66.65C573.95 78.05 570.85 86.55 564.65 92.15C558.55 97.75 549.95 100.55 538.85 100.55H473V140H449ZM536 52.25H473V80.9L536 81.05C540.4 81.05 543.75 79.95 546.05 77.75C548.45 75.55 549.65 71.85 549.65 66.65C549.65 61.35 548.45 57.65 546.05 55.55C543.75 53.35 540.4 52.25 536 52.25ZM603.443 140.75V121.25L689.693 121.4C694.093 121.4 697.443 120.4 699.743 118.4C702.143 116.3 703.343 112.95 703.343 108.35C703.343 103.75 702.143 100.45 699.743 98.45C697.443 96.35 694.093 95.3 689.693 95.3H635.993C624.893 95.3 616.243 92.65 610.043 87.35C603.943 81.95 600.893 74.05 600.893 63.65C600.893 53.25 603.943 45.4 610.043 40.1C616.243 34.7 624.893 32 635.993 32H720.293V51.5L638.543 51.35C634.243 51.35 630.893 52.35 628.493 54.35C626.093 56.25 624.893 59.35 624.893 63.65C624.893 67.95 626.093 71.1 628.493 73.1C630.893 75 634.243 75.95 638.543 75.95H692.243C703.343 75.95 711.943 78.7 718.043 84.2C724.243 89.6 727.343 97.65 727.343 108.35C727.343 118.95 724.243 127 718.043 132.5C711.943 138 703.343 140.75 692.243 140.75H603.443Z" fill="#0A1128"/>
<g clip-path="url(#clip0_6_37)">
<path d="M369.663 29.8595L406.788 51.7495C407.155 51.9695 407.485 52.2134 407.778 52.481L407.827 52.525L408.411 52.9375C410.473 54.4828 412.174 56.4596 413.394 58.7299C414.613 61.0003 415.323 63.5096 415.473 66.0825L415.5 67.199V107.261C415.5 113.724 411.964 119.669 406.574 122.623L369.151 146.284C363.761 149.243 357.238 149.243 351.551 146.108L314.729 122.804C311.94 121.276 309.613 119.028 307.99 116.294C306.366 113.56 305.507 110.441 305.5 107.261V67.1935C305.497 64.0438 306.338 60.9507 307.933 58.2351C309.529 55.5195 311.822 53.2802 314.575 51.7495L351.837 29.777C354.571 28.2775 357.641 27.4983 360.758 27.5128C363.876 27.5272 366.938 28.3348 369.657 29.8595M366.137 59.246C364.467 58.2847 362.575 57.7723 360.648 57.7588C358.72 57.7453 356.822 58.2312 355.137 59.169L338.511 69.091C336.83 70.0526 335.434 71.4431 334.466 73.1205C333.497 74.7979 332.992 76.7022 333 78.639V96.668C332.999 98.632 333.524 100.56 334.52 102.253C335.516 103.946 336.947 105.341 338.665 106.293L354.868 116.688C358.481 118.707 362.513 118.707 365.835 116.87L382.632 106.117C385.833 104.346 388 100.661 388 96.6625V78.639L387.973 77.737C387.858 76.2589 387.445 74.8192 386.76 73.5045C386.075 72.1898 385.131 71.0272 383.985 70.0865L383.479 69.7015L383.171 69.443C383.002 69.3156 382.826 69.1981 382.643 69.091L366.137 59.246Z" fill="#6366F1"/>
</g>
<defs>
<clipPath id="clip0_6_37">
<rect width="132" height="132" fill="white" transform="translate(294.5 22)"/>
</clipPath>
</defs>
</svg>
