<svg width="730" height="203" viewBox="0 0 730 203" fill="none" xmlns="http://www.w3.org/2000/svg">
<path d="M61.2 140.75C41.4 140.75 26.25 136.2 15.75 127.1C5.25 117.9 1.78814e-07 104.3 1.78814e-07 86.3C1.78814e-07 68.4 5.25 54.85 15.75 45.65C26.25 36.45 41.4 31.9 61.2 32L115.2 32.3V51.5H62.85C49.85 51.5 40.2 54.25 33.9 59.75C27.6 65.25 24.45 74.1 24.45 86.3C24.45 98.5 27.6 107.4 33.9 113C40.2 118.5 49.85 121.25 62.85 121.25H116.7V140.75H61.2ZM149.684 140V32.75H173.684V76.7H249.284V32.75H273.284V140H249.284V96.2H173.684V140H149.684Z" fill="white"/>
<path d="M451 140V32.75H540.85C551.95 32.75 560.55 35.55 566.65 41.15C572.85 46.75 575.95 55.25 575.95 66.65C575.95 78.05 572.85 86.55 566.65 92.15C560.55 97.75 551.95 100.55 540.85 100.55H475V140H451ZM538 52.25H475V80.9L538 81.05C542.4 81.05 545.75 79.95 548.05 77.75C550.45 75.55 551.65 71.85 551.65 66.65C551.65 61.35 550.45 57.65 548.05 55.55C545.75 53.35 542.4 52.25 538 52.25ZM605.443 140.75V121.25L691.693 121.4C696.093 121.4 699.443 120.4 701.743 118.4C704.143 116.3 705.343 112.95 705.343 108.35C705.343 103.75 704.143 100.45 701.743 98.45C699.443 96.35 696.093 95.3 691.693 95.3H637.993C626.893 95.3 618.243 92.65 612.043 87.35C605.943 81.95 602.893 74.05 602.893 63.65C602.893 53.25 605.943 45.4 612.043 40.1C618.243 34.7 626.893 32 637.993 32H722.293V51.5L640.543 51.35C636.243 51.35 632.893 52.35 630.493 54.35C628.093 56.25 626.893 59.35 626.893 63.65C626.893 67.95 628.093 71.1 630.493 73.1C632.893 75 636.243 75.95 640.543 75.95H694.243C705.343 75.95 713.943 78.7 720.043 84.2C726.243 89.6 729.343 97.65 729.343 108.35C729.343 118.95 726.243 127 720.043 132.5C713.943 138 705.343 140.75 694.243 140.75H605.443Z" fill="white"/>
<g clip-path="url(#clip0_6_19)">
<path d="M371.663 29.8595L408.788 51.7495C409.155 51.9695 409.485 52.2134 409.778 52.481L409.827 52.525L410.411 52.9375C412.473 54.4828 414.174 56.4596 415.394 58.7299C416.613 61.0003 417.323 63.5096 417.473 66.0825L417.5 67.199V107.261C417.5 113.724 413.964 119.669 408.574 122.623L371.151 146.284C365.761 149.243 359.238 149.243 353.551 146.108L316.729 122.804C313.94 121.276 311.613 119.028 309.99 116.294C308.366 113.56 307.507 110.441 307.5 107.261V67.1935C307.497 64.0438 308.338 60.9507 309.933 58.2351C311.529 55.5195 313.822 53.2802 316.575 51.7495L353.837 29.777C356.571 28.2775 359.641 27.4983 362.758 27.5128C365.876 27.5272 368.938 28.3348 371.657 29.8595M368.137 59.246C366.467 58.2847 364.575 57.7723 362.648 57.7588C360.72 57.7453 358.822 58.2312 357.137 59.169L340.511 69.091C338.83 70.0526 337.434 71.4431 336.466 73.1205C335.497 74.7979 334.992 76.7022 335 78.639V96.668C334.999 98.632 335.524 100.56 336.52 102.253C337.516 103.946 338.947 105.341 340.665 106.293L356.868 116.688C360.481 118.707 364.513 118.707 367.835 116.87L384.632 106.117C387.833 104.346 390 100.661 390 96.6625V78.639L389.973 77.737C389.858 76.2589 389.445 74.8192 388.76 73.5045C388.075 72.1898 387.131 71.0272 385.985 70.0865L385.479 69.7015L385.171 69.443C385.002 69.3156 384.826 69.1981 384.643 69.091L368.137 59.246Z" fill="#B87EFB"/>
</g>
<defs>
<clipPath id="clip0_6_19">
<rect width="132" height="132" fill="white" transform="translate(296.5 22)"/>
</clipPath>
</defs>
</svg>
