<svg width="889" height="458" viewBox="0 0 889 458" fill="none" xmlns="http://www.w3.org/2000/svg">
<path d="M153.7 276.75C133.9 276.75 118.75 272.2 108.25 263.1C97.75 253.9 92.5 240.3 92.5 222.3C92.5 204.4 97.75 190.85 108.25 181.65C118.75 172.45 133.9 167.9 153.7 168L207.7 168.3V187.5H155.35C142.35 187.5 132.7 190.25 126.4 195.75C120.1 201.25 116.95 210.1 116.95 222.3C116.95 234.5 120.1 243.4 126.4 249C132.7 254.5 142.35 257.25 155.35 257.25H209.2V276.75H153.7ZM242.184 276V168.75H266.184V212.7H341.784V168.75H365.784V276H341.784V232.2H266.184V276H242.184Z" fill="#0A1128"/>
<path d="M541.5 276V168.75H631.35C642.45 168.75 651.05 171.55 657.15 177.15C663.35 182.75 666.45 191.25 666.45 202.65C666.45 214.05 663.35 222.55 657.15 228.15C651.05 233.75 642.45 236.55 631.35 236.55H565.5V276H541.5ZM628.5 188.25H565.5V216.9L628.5 217.05C632.9 217.05 636.25 215.95 638.55 213.75C640.95 211.55 642.15 207.85 642.15 202.65C642.15 197.35 640.95 193.65 638.55 191.55C636.25 189.35 632.9 188.25 628.5 188.25ZM695.943 276.75V257.25L782.193 257.4C786.593 257.4 789.943 256.4 792.243 254.4C794.643 252.3 795.843 248.95 795.843 244.35C795.843 239.75 794.643 236.45 792.243 234.45C789.943 232.35 786.593 231.3 782.193 231.3H728.493C717.393 231.3 708.743 228.65 702.543 223.35C696.443 217.95 693.393 210.05 693.393 199.65C693.393 189.25 696.443 181.4 702.543 176.1C708.743 170.7 717.393 168 728.493 168H812.793V187.5L731.043 187.35C726.743 187.35 723.393 188.35 720.993 190.35C718.593 192.25 717.393 195.35 717.393 199.65C717.393 203.95 718.593 207.1 720.993 209.1C723.393 211 726.743 211.95 731.043 211.95H784.743C795.843 211.95 804.443 214.7 810.543 220.2C816.743 225.6 819.843 233.65 819.843 244.35C819.843 254.95 816.743 263 810.543 268.5C804.443 274 795.843 276.75 784.743 276.75H695.943Z" fill="#0A1128"/>
<path d="M584.788 317.986V317.091H592.699V317.986H589.241V328H588.245V317.986H584.788ZM594.941 317.091H596.092L600.049 326.594H600.145L604.103 317.091H605.254V328H604.316V319.195H604.231L600.55 328H599.645L595.964 319.195H595.879V328H594.941V317.091Z" fill="#6366F1"/>
<path d="M103.523 350V320.909H113.352C115.634 320.909 117.5 321.321 118.949 322.145C120.407 322.959 121.487 324.062 122.188 325.455C122.888 326.847 123.239 328.4 123.239 330.114C123.239 331.828 122.888 333.385 122.188 334.787C121.496 336.188 120.426 337.306 118.977 338.139C117.528 338.963 115.672 339.375 113.409 339.375H106.364V336.25H113.295C114.858 336.25 116.113 335.98 117.06 335.44C118.007 334.901 118.693 334.171 119.119 333.253C119.555 332.325 119.773 331.278 119.773 330.114C119.773 328.949 119.555 327.907 119.119 326.989C118.693 326.07 118.002 325.35 117.045 324.83C116.089 324.299 114.82 324.034 113.239 324.034H107.045V350H103.523ZM137.088 350.455C135.118 350.455 133.39 349.986 131.903 349.048C130.426 348.111 129.271 346.799 128.438 345.114C127.614 343.428 127.202 341.458 127.202 339.205C127.202 336.932 127.614 334.948 128.438 333.253C129.271 331.558 130.426 330.241 131.903 329.304C133.39 328.366 135.118 327.898 137.088 327.898C139.058 327.898 140.781 328.366 142.259 329.304C143.745 330.241 144.901 331.558 145.724 333.253C146.558 334.948 146.974 336.932 146.974 339.205C146.974 341.458 146.558 343.428 145.724 345.114C144.901 346.799 143.745 348.111 142.259 349.048C140.781 349.986 139.058 350.455 137.088 350.455ZM137.088 347.443C138.584 347.443 139.815 347.06 140.781 346.293C141.747 345.526 142.462 344.517 142.926 343.267C143.39 342.017 143.622 340.663 143.622 339.205C143.622 337.746 143.39 336.387 142.926 335.128C142.462 333.868 141.747 332.85 140.781 332.074C139.815 331.297 138.584 330.909 137.088 330.909C135.592 330.909 134.361 331.297 133.395 332.074C132.429 332.85 131.714 333.868 131.25 335.128C130.786 336.387 130.554 337.746 130.554 339.205C130.554 340.663 130.786 342.017 131.25 343.267C131.714 344.517 132.429 345.526 133.395 346.293C134.361 347.06 135.592 347.443 137.088 347.443ZM156.293 350L149.645 328.182H153.168L157.884 344.886H158.111L162.77 328.182H166.349L170.952 344.83H171.179L175.895 328.182H179.418L172.77 350H169.474L164.702 333.239H164.361L159.588 350H156.293ZM192.255 350.455C190.153 350.455 188.339 349.991 186.815 349.062C185.299 348.125 184.13 346.818 183.306 345.142C182.492 343.456 182.085 341.496 182.085 339.261C182.085 337.027 182.492 335.057 183.306 333.352C184.13 331.638 185.276 330.303 186.744 329.347C188.221 328.381 189.944 327.898 191.914 327.898C193.05 327.898 194.173 328.087 195.281 328.466C196.388 328.845 197.397 329.46 198.306 330.312C199.215 331.155 199.94 332.273 200.479 333.665C201.019 335.057 201.289 336.771 201.289 338.807V340.227H184.471V337.33H197.88C197.88 336.098 197.634 335 197.141 334.034C196.658 333.068 195.967 332.306 195.067 331.747C194.177 331.188 193.126 330.909 191.914 330.909C190.579 330.909 189.424 331.241 188.448 331.903C187.482 332.557 186.739 333.409 186.218 334.46C185.697 335.511 185.437 336.638 185.437 337.841V339.773C185.437 341.42 185.721 342.817 186.289 343.963C186.867 345.099 187.667 345.966 188.69 346.562C189.712 347.15 190.901 347.443 192.255 347.443C193.136 347.443 193.931 347.32 194.641 347.074C195.361 346.818 195.981 346.439 196.502 345.938C197.023 345.426 197.425 344.792 197.71 344.034L200.948 344.943C200.607 346.042 200.034 347.008 199.229 347.841C198.424 348.665 197.43 349.309 196.246 349.773C195.063 350.227 193.732 350.455 192.255 350.455ZM206.388 350V328.182H209.627V331.477H209.854C210.252 330.398 210.972 329.522 212.013 328.849C213.055 328.177 214.229 327.841 215.536 327.841C215.782 327.841 216.09 327.846 216.46 327.855C216.829 327.865 217.108 327.879 217.298 327.898V331.307C217.184 331.278 216.924 331.236 216.516 331.179C216.119 331.113 215.697 331.08 215.252 331.08C214.192 331.08 213.245 331.302 212.411 331.747C211.587 332.183 210.934 332.789 210.451 333.565C209.978 334.332 209.741 335.208 209.741 336.193V350H206.388ZM229.755 350.455C227.653 350.455 225.839 349.991 224.315 349.062C222.799 348.125 221.63 346.818 220.806 345.142C219.992 343.456 219.585 341.496 219.585 339.261C219.585 337.027 219.992 335.057 220.806 333.352C221.63 331.638 222.776 330.303 224.244 329.347C225.721 328.381 227.444 327.898 229.414 327.898C230.55 327.898 231.673 328.087 232.781 328.466C233.888 328.845 234.897 329.46 235.806 330.312C236.715 331.155 237.44 332.273 237.979 333.665C238.519 335.057 238.789 336.771 238.789 338.807V340.227H221.971V337.33H235.38C235.38 336.098 235.134 335 234.641 334.034C234.158 333.068 233.467 332.306 232.567 331.747C231.677 331.188 230.626 330.909 229.414 330.909C228.079 330.909 226.924 331.241 225.948 331.903C224.982 332.557 224.239 333.409 223.718 334.46C223.197 335.511 222.937 336.638 222.937 337.841V339.773C222.937 341.42 223.221 342.817 223.789 343.963C224.367 345.099 225.167 345.966 226.19 346.562C227.212 347.15 228.401 347.443 229.755 347.443C230.636 347.443 231.431 347.32 232.141 347.074C232.861 346.818 233.481 346.439 234.002 345.938C234.523 345.426 234.925 344.792 235.21 344.034L238.448 344.943C238.107 346.042 237.534 347.008 236.729 347.841C235.924 348.665 234.93 349.309 233.746 349.773C232.563 350.227 231.232 350.455 229.755 350.455ZM252.127 350.455C250.309 350.455 248.704 349.995 247.312 349.077C245.92 348.149 244.831 346.842 244.045 345.156C243.259 343.461 242.866 341.458 242.866 339.148C242.866 336.856 243.259 334.867 244.045 333.182C244.831 331.496 245.924 330.194 247.326 329.276C248.728 328.357 250.347 327.898 252.184 327.898C253.604 327.898 254.727 328.134 255.55 328.608C256.384 329.072 257.018 329.602 257.454 330.199C257.899 330.786 258.245 331.269 258.491 331.648H258.775V320.909H262.127V350H258.888V346.648H258.491C258.245 347.045 257.894 347.547 257.44 348.153C256.985 348.75 256.336 349.285 255.494 349.759C254.651 350.223 253.529 350.455 252.127 350.455ZM252.582 347.443C253.926 347.443 255.063 347.093 255.991 346.392C256.919 345.682 257.624 344.702 258.107 343.452C258.59 342.192 258.832 340.739 258.832 339.091C258.832 337.462 258.595 336.037 258.121 334.815C257.648 333.584 256.947 332.628 256.019 331.946C255.091 331.255 253.945 330.909 252.582 330.909C251.161 330.909 249.978 331.274 249.031 332.003C248.093 332.723 247.388 333.703 246.914 334.943C246.45 336.174 246.218 337.557 246.218 339.091C246.218 340.644 246.455 342.055 246.928 343.324C247.411 344.583 248.121 345.587 249.059 346.335C250.006 347.074 251.18 347.443 252.582 347.443ZM280.437 350V320.909H283.789V331.648H284.073C284.319 331.269 284.66 330.786 285.096 330.199C285.541 329.602 286.175 329.072 286.999 328.608C287.833 328.134 288.96 327.898 290.38 327.898C292.217 327.898 293.836 328.357 295.238 329.276C296.639 330.194 297.733 331.496 298.519 333.182C299.305 334.867 299.698 336.856 299.698 339.148C299.698 341.458 299.305 343.461 298.519 345.156C297.733 346.842 296.644 348.149 295.252 349.077C293.86 349.995 292.255 350.455 290.437 350.455C289.035 350.455 287.913 350.223 287.07 349.759C286.228 349.285 285.579 348.75 285.124 348.153C284.67 347.547 284.319 347.045 284.073 346.648H283.675V350H280.437ZM283.732 339.091C283.732 340.739 283.974 342.192 284.457 343.452C284.94 344.702 285.645 345.682 286.573 346.392C287.501 347.093 288.638 347.443 289.982 347.443C291.384 347.443 292.553 347.074 293.491 346.335C294.438 345.587 295.148 344.583 295.621 343.324C296.104 342.055 296.346 340.644 296.346 339.091C296.346 337.557 296.109 336.174 295.636 334.943C295.172 333.703 294.466 332.723 293.519 332.003C292.582 331.274 291.403 330.909 289.982 330.909C288.619 330.909 287.473 331.255 286.545 331.946C285.617 332.628 284.916 333.584 284.442 334.815C283.969 336.037 283.732 337.462 283.732 339.091ZM306.204 358.182C305.636 358.182 305.129 358.134 304.684 358.04C304.239 357.955 303.931 357.869 303.761 357.784L304.613 354.83C305.427 355.038 306.147 355.114 306.772 355.057C307.397 355 307.951 354.721 308.434 354.219C308.926 353.726 309.376 352.926 309.783 351.818L310.408 350.114L302.34 328.182H305.977L311.999 345.568H312.227L318.249 328.182H321.886L312.624 353.182C312.208 354.309 311.692 355.241 311.076 355.98C310.46 356.728 309.746 357.282 308.931 357.642C308.126 358.002 307.217 358.182 306.204 358.182ZM348.676 339.381H354.165L356.924 342.93L359.638 346.092L364.754 352.506H358.729L355.209 348.18L353.404 345.615L348.676 339.381ZM365.217 334.727C365.217 338.058 364.585 340.892 363.322 343.229C362.07 345.565 360.359 347.35 358.192 348.583C356.034 349.806 353.608 350.418 350.913 350.418C348.199 350.418 345.763 349.801 343.605 348.568C341.447 347.335 339.742 345.55 338.489 343.214C337.237 340.877 336.61 338.048 336.61 334.727C336.61 331.396 337.237 328.562 338.489 326.226C339.742 323.889 341.447 322.109 343.605 320.886C345.763 319.653 348.199 319.037 350.913 319.037C353.608 319.037 356.034 319.653 358.192 320.886C360.359 322.109 362.07 323.889 363.322 326.226C364.585 328.562 365.217 331.396 365.217 334.727ZM358.669 334.727C358.669 332.57 358.346 330.75 357.7 329.268C357.063 327.787 356.163 326.663 355 325.898C353.837 325.132 352.474 324.749 350.913 324.749C349.352 324.749 347.99 325.132 346.827 325.898C345.663 326.663 344.759 327.787 344.112 329.268C343.476 330.75 343.158 332.57 343.158 334.727C343.158 336.885 343.476 338.705 344.112 340.186C344.759 341.668 345.663 342.791 346.827 343.557C347.99 344.322 349.352 344.705 350.913 344.705C352.474 344.705 353.837 344.322 355 343.557C356.163 342.791 357.063 341.668 357.7 340.186C358.346 338.705 358.669 336.885 358.669 334.727ZM388.868 319.455H395.326V339.291C395.326 341.518 394.794 343.467 393.73 345.138C392.676 346.808 391.199 348.111 389.3 349.045C387.401 349.97 385.189 350.433 382.663 350.433C380.128 350.433 377.91 349.97 376.011 349.045C374.112 348.111 372.635 346.808 371.581 345.138C370.528 343.467 370.001 341.518 370.001 339.291V319.455H376.459V338.739C376.459 339.903 376.712 340.937 377.219 341.842C377.736 342.746 378.462 343.457 379.397 343.974C380.331 344.491 381.42 344.75 382.663 344.75C383.916 344.75 385.005 344.491 385.93 343.974C386.864 343.457 387.585 342.746 388.092 341.842C388.609 340.937 388.868 339.903 388.868 338.739V319.455ZM405.904 350H398.984L409.528 319.455H417.851L428.381 350H421.46L413.809 326.435H413.57L405.904 350ZM405.472 337.994H421.818V343.035H405.472V337.994ZM457.606 319.455V350H452.028L438.739 330.775H438.515V350H432.057V319.455H437.725L450.909 338.665H451.178V319.455H457.606ZM461.779 324.779V319.455H486.865V324.779H477.514V350H471.13V324.779H461.779ZM490.997 350V319.455H503.048C505.355 319.455 507.323 319.867 508.954 320.692C510.595 321.508 511.843 322.666 512.698 324.168C513.563 325.659 513.995 327.414 513.995 329.433C513.995 331.461 513.558 333.206 512.683 334.668C511.808 336.119 510.54 337.233 508.879 338.009C507.229 338.784 505.23 339.172 502.884 339.172H494.815V333.982H501.84C503.073 333.982 504.097 333.812 504.912 333.474C505.727 333.136 506.334 332.629 506.732 331.953C507.139 331.277 507.343 330.437 507.343 329.433C507.343 328.418 507.139 327.563 506.732 326.867C506.334 326.171 505.722 325.644 504.897 325.286C504.082 324.918 503.053 324.734 501.81 324.734H497.455V350H490.997ZM507.492 336.099L515.084 350H507.955L500.527 336.099H507.492ZM523.824 350H516.904L527.448 319.455H535.771L546.301 350H539.38L531.729 326.435H531.49L523.824 350ZM523.392 337.994H539.738V343.035H523.392V337.994ZM556.435 319.455V350H549.977V319.455H556.435ZM561.749 350V319.455H568.207V344.675H581.302V350H561.749Z" fill="#6366F1"/>
<g clip-path="url(#clip0_6_37)">
<path d="M462.163 165.86L499.288 187.75C499.655 187.97 499.985 188.213 500.278 188.481L500.328 188.525L500.911 188.938C502.973 190.483 504.674 192.46 505.894 194.73C507.113 197 507.823 199.51 507.973 202.083L508 203.199V243.261C508 249.724 504.464 255.669 499.074 258.623L461.651 282.284C456.261 285.243 449.738 285.243 444.051 282.108L407.229 258.804C404.44 257.276 402.113 255.028 400.49 252.294C398.866 249.56 398.007 246.441 398 243.261V203.194C397.997 200.044 398.838 196.951 400.433 194.235C402.029 191.52 404.322 189.28 407.075 187.75L444.337 165.777C447.071 164.278 450.141 163.498 453.258 163.513C456.376 163.527 459.438 164.335 462.157 165.86M458.637 195.246C456.967 194.285 455.075 193.772 453.148 193.759C451.22 193.745 449.322 194.231 447.637 195.169L431.011 205.091C429.33 206.053 427.934 207.443 426.966 209.121C425.997 210.798 425.492 212.702 425.5 214.639V232.668C425.499 234.632 426.024 236.56 427.02 238.253C428.016 239.946 429.447 241.341 431.165 242.293L447.368 252.688C450.981 254.707 455.013 254.707 458.335 252.87L475.132 242.117C478.333 240.346 480.5 236.661 480.5 232.663V214.639L480.473 213.737C480.358 212.259 479.945 210.819 479.26 209.505C478.575 208.19 477.631 207.027 476.485 206.087L475.979 205.702L475.671 205.443C475.502 205.316 475.326 205.198 475.143 205.091L458.637 195.246Z" fill="#6366F1"/>
</g>
<defs>
<clipPath id="clip0_6_37">
<rect width="132" height="132" fill="white" transform="translate(387 158)"/>
</clipPath>
</defs>
</svg>
