<svg width="889" height="458" viewBox="0 0 889 458" fill="none" xmlns="http://www.w3.org/2000/svg">
<path d="M151.7 276.75C131.9 276.75 116.75 272.2 106.25 263.1C95.75 253.9 90.5 240.3 90.5 222.3C90.5 204.4 95.75 190.85 106.25 181.65C116.75 172.45 131.9 167.9 151.7 168L205.7 168.3V187.5H153.35C140.35 187.5 130.7 190.25 124.4 195.75C118.1 201.25 114.95 210.1 114.95 222.3C114.95 234.5 118.1 243.4 124.4 249C130.7 254.5 140.35 257.25 153.35 257.25H207.2V276.75H151.7ZM240.184 276V168.75H264.184V212.7H339.784V168.75H363.784V276H339.784V232.2H264.184V276H240.184Z" fill="white"/>
<path d="M541.5 276V168.75H631.35C642.45 168.75 651.05 171.55 657.15 177.15C663.35 182.75 666.45 191.25 666.45 202.65C666.45 214.05 663.35 222.55 657.15 228.15C651.05 233.75 642.45 236.55 631.35 236.55H565.5V276H541.5ZM628.5 188.25H565.5V216.9L628.5 217.05C632.9 217.05 636.25 215.95 638.55 213.75C640.95 211.55 642.15 207.85 642.15 202.65C642.15 197.35 640.95 193.65 638.55 191.55C636.25 189.35 632.9 188.25 628.5 188.25ZM695.943 276.75V257.25L782.193 257.4C786.593 257.4 789.943 256.4 792.243 254.4C794.643 252.3 795.843 248.95 795.843 244.35C795.843 239.75 794.643 236.45 792.243 234.45C789.943 232.35 786.593 231.3 782.193 231.3H728.493C717.393 231.3 708.743 228.65 702.543 223.35C696.443 217.95 693.393 210.05 693.393 199.65C693.393 189.25 696.443 181.4 702.543 176.1C708.743 170.7 717.393 168 728.493 168H812.793V187.5L731.043 187.35C726.743 187.35 723.393 188.35 720.993 190.35C718.593 192.25 717.393 195.35 717.393 199.65C717.393 203.95 718.593 207.1 720.993 209.1C723.393 211 726.743 211.95 731.043 211.95H784.743C795.843 211.95 804.443 214.7 810.543 220.2C816.743 225.6 819.843 233.65 819.843 244.35C819.843 254.95 816.743 263 810.543 268.5C804.443 274 795.843 276.75 784.743 276.75H695.943Z" fill="white"/>
<path d="M576.788 317.986V317.091H584.699V317.986H581.241V328H580.245V317.986H576.788ZM586.941 317.091H588.092L592.049 326.594H592.145L596.103 317.091H597.254V328H596.316V319.195H596.231L592.55 328H591.645L587.964 319.195H587.879V328H586.941V317.091Z" fill="white"/>
<path d="M95.5227 350V320.909H105.352C107.634 320.909 109.5 321.321 110.949 322.145C112.407 322.959 113.487 324.062 114.188 325.455C114.888 326.847 115.239 328.4 115.239 330.114C115.239 331.828 114.888 333.385 114.188 334.787C113.496 336.188 112.426 337.306 110.977 338.139C109.528 338.963 107.672 339.375 105.409 339.375H98.3636V336.25H105.295C106.858 336.25 108.113 335.98 109.06 335.44C110.007 334.901 110.693 334.171 111.119 333.253C111.555 332.325 111.773 331.278 111.773 330.114C111.773 328.949 111.555 327.907 111.119 326.989C110.693 326.07 110.002 325.35 109.045 324.83C108.089 324.299 106.82 324.034 105.239 324.034H99.0455V350H95.5227ZM129.088 350.455C127.118 350.455 125.39 349.986 123.903 349.048C122.426 348.111 121.271 346.799 120.438 345.114C119.614 343.428 119.202 341.458 119.202 339.205C119.202 336.932 119.614 334.948 120.438 333.253C121.271 331.558 122.426 330.241 123.903 329.304C125.39 328.366 127.118 327.898 129.088 327.898C131.058 327.898 132.781 328.366 134.259 329.304C135.745 330.241 136.901 331.558 137.724 333.253C138.558 334.948 138.974 336.932 138.974 339.205C138.974 341.458 138.558 343.428 137.724 345.114C136.901 346.799 135.745 348.111 134.259 349.048C132.781 349.986 131.058 350.455 129.088 350.455ZM129.088 347.443C130.584 347.443 131.815 347.06 132.781 346.293C133.747 345.526 134.462 344.517 134.926 343.267C135.39 342.017 135.622 340.663 135.622 339.205C135.622 337.746 135.39 336.387 134.926 335.128C134.462 333.868 133.747 332.85 132.781 332.074C131.815 331.297 130.584 330.909 129.088 330.909C127.592 330.909 126.361 331.297 125.395 332.074C124.429 332.85 123.714 333.868 123.25 335.128C122.786 336.387 122.554 337.746 122.554 339.205C122.554 340.663 122.786 342.017 123.25 343.267C123.714 344.517 124.429 345.526 125.395 346.293C126.361 347.06 127.592 347.443 129.088 347.443ZM148.293 350L141.645 328.182H145.168L149.884 344.886H150.111L154.77 328.182H158.349L162.952 344.83H163.179L167.895 328.182H171.418L164.77 350H161.474L156.702 333.239H156.361L151.588 350H148.293ZM184.255 350.455C182.153 350.455 180.339 349.991 178.815 349.062C177.299 348.125 176.13 346.818 175.306 345.142C174.492 343.456 174.085 341.496 174.085 339.261C174.085 337.027 174.492 335.057 175.306 333.352C176.13 331.638 177.276 330.303 178.744 329.347C180.221 328.381 181.944 327.898 183.914 327.898C185.05 327.898 186.173 328.087 187.281 328.466C188.388 328.845 189.397 329.46 190.306 330.312C191.215 331.155 191.94 332.273 192.479 333.665C193.019 335.057 193.289 336.771 193.289 338.807V340.227H176.471V337.33H189.88C189.88 336.098 189.634 335 189.141 334.034C188.658 333.068 187.967 332.306 187.067 331.747C186.177 331.188 185.126 330.909 183.914 330.909C182.579 330.909 181.424 331.241 180.448 331.903C179.482 332.557 178.739 333.409 178.218 334.46C177.697 335.511 177.437 336.638 177.437 337.841V339.773C177.437 341.42 177.721 342.817 178.289 343.963C178.867 345.099 179.667 345.966 180.69 346.562C181.712 347.15 182.901 347.443 184.255 347.443C185.136 347.443 185.931 347.32 186.641 347.074C187.361 346.818 187.981 346.439 188.502 345.938C189.023 345.426 189.425 344.792 189.71 344.034L192.948 344.943C192.607 346.042 192.034 347.008 191.229 347.841C190.424 348.665 189.43 349.309 188.246 349.773C187.063 350.227 185.732 350.455 184.255 350.455ZM198.388 350V328.182H201.627V331.477H201.854C202.252 330.398 202.972 329.522 204.013 328.849C205.055 328.177 206.229 327.841 207.536 327.841C207.782 327.841 208.09 327.846 208.46 327.855C208.829 327.865 209.108 327.879 209.298 327.898V331.307C209.184 331.278 208.924 331.236 208.516 331.179C208.119 331.113 207.697 331.08 207.252 331.08C206.192 331.08 205.245 331.302 204.411 331.747C203.587 332.183 202.934 332.789 202.451 333.565C201.978 334.332 201.741 335.208 201.741 336.193V350H198.388ZM221.755 350.455C219.653 350.455 217.839 349.991 216.315 349.062C214.799 348.125 213.63 346.818 212.806 345.142C211.992 343.456 211.585 341.496 211.585 339.261C211.585 337.027 211.992 335.057 212.806 333.352C213.63 331.638 214.776 330.303 216.244 329.347C217.721 328.381 219.444 327.898 221.414 327.898C222.55 327.898 223.673 328.087 224.781 328.466C225.888 328.845 226.897 329.46 227.806 330.312C228.715 331.155 229.44 332.273 229.979 333.665C230.519 335.057 230.789 336.771 230.789 338.807V340.227H213.971V337.33H227.38C227.38 336.098 227.134 335 226.641 334.034C226.158 333.068 225.467 332.306 224.567 331.747C223.677 331.188 222.626 330.909 221.414 330.909C220.079 330.909 218.924 331.241 217.948 331.903C216.982 332.557 216.239 333.409 215.718 334.46C215.197 335.511 214.937 336.638 214.937 337.841V339.773C214.937 341.42 215.221 342.817 215.789 343.963C216.367 345.099 217.167 345.966 218.19 346.562C219.212 347.15 220.401 347.443 221.755 347.443C222.636 347.443 223.431 347.32 224.141 347.074C224.861 346.818 225.481 346.439 226.002 345.938C226.523 345.426 226.925 344.792 227.21 344.034L230.448 344.943C230.107 346.042 229.534 347.008 228.729 347.841C227.924 348.665 226.93 349.309 225.746 349.773C224.563 350.227 223.232 350.455 221.755 350.455ZM244.127 350.455C242.309 350.455 240.704 349.995 239.312 349.077C237.92 348.149 236.831 346.842 236.045 345.156C235.259 343.461 234.866 341.458 234.866 339.148C234.866 336.856 235.259 334.867 236.045 333.182C236.831 331.496 237.924 330.194 239.326 329.276C240.728 328.357 242.347 327.898 244.184 327.898C245.604 327.898 246.727 328.134 247.55 328.608C248.384 329.072 249.018 329.602 249.454 330.199C249.899 330.786 250.245 331.269 250.491 331.648H250.775V320.909H254.127V350H250.888V346.648H250.491C250.245 347.045 249.894 347.547 249.44 348.153C248.985 348.75 248.336 349.285 247.494 349.759C246.651 350.223 245.529 350.455 244.127 350.455ZM244.582 347.443C245.926 347.443 247.063 347.093 247.991 346.392C248.919 345.682 249.624 344.702 250.107 343.452C250.59 342.192 250.832 340.739 250.832 339.091C250.832 337.462 250.595 336.037 250.121 334.815C249.648 333.584 248.947 332.628 248.019 331.946C247.091 331.255 245.945 330.909 244.582 330.909C243.161 330.909 241.978 331.274 241.031 332.003C240.093 332.723 239.388 333.703 238.914 334.943C238.45 336.174 238.218 337.557 238.218 339.091C238.218 340.644 238.455 342.055 238.928 343.324C239.411 344.583 240.121 345.587 241.059 346.335C242.006 347.074 243.18 347.443 244.582 347.443ZM272.437 350V320.909H275.789V331.648H276.073C276.319 331.269 276.66 330.786 277.096 330.199C277.541 329.602 278.175 329.072 278.999 328.608C279.833 328.134 280.96 327.898 282.38 327.898C284.217 327.898 285.836 328.357 287.238 329.276C288.639 330.194 289.733 331.496 290.519 333.182C291.305 334.867 291.698 336.856 291.698 339.148C291.698 341.458 291.305 343.461 290.519 345.156C289.733 346.842 288.644 348.149 287.252 349.077C285.86 349.995 284.255 350.455 282.437 350.455C281.035 350.455 279.913 350.223 279.07 349.759C278.228 349.285 277.579 348.75 277.124 348.153C276.67 347.547 276.319 347.045 276.073 346.648H275.675V350H272.437ZM275.732 339.091C275.732 340.739 275.974 342.192 276.457 343.452C276.94 344.702 277.645 345.682 278.573 346.392C279.501 347.093 280.638 347.443 281.982 347.443C283.384 347.443 284.553 347.074 285.491 346.335C286.438 345.587 287.148 344.583 287.621 343.324C288.104 342.055 288.346 340.644 288.346 339.091C288.346 337.557 288.109 336.174 287.636 334.943C287.172 333.703 286.466 332.723 285.519 332.003C284.582 331.274 283.403 330.909 281.982 330.909C280.619 330.909 279.473 331.255 278.545 331.946C277.617 332.628 276.916 333.584 276.442 334.815C275.969 336.037 275.732 337.462 275.732 339.091ZM298.204 358.182C297.636 358.182 297.129 358.134 296.684 358.04C296.239 357.955 295.931 357.869 295.761 357.784L296.613 354.83C297.427 355.038 298.147 355.114 298.772 355.057C299.397 355 299.951 354.721 300.434 354.219C300.926 353.726 301.376 352.926 301.783 351.818L302.408 350.114L294.34 328.182H297.977L303.999 345.568H304.227L310.249 328.182H313.886L304.624 353.182C304.208 354.309 303.692 355.241 303.076 355.98C302.46 356.728 301.746 357.282 300.931 357.642C300.126 358.002 299.217 358.182 298.204 358.182ZM340.676 339.381H346.165L348.924 342.93L351.638 346.092L356.754 352.506H350.729L347.209 348.18L345.404 345.615L340.676 339.381ZM357.217 334.727C357.217 338.058 356.585 340.892 355.322 343.229C354.07 345.565 352.359 347.35 350.192 348.583C348.034 349.806 345.608 350.418 342.913 350.418C340.199 350.418 337.763 349.801 335.605 348.568C333.447 347.335 331.742 345.55 330.489 343.214C329.237 340.877 328.61 338.048 328.61 334.727C328.61 331.396 329.237 328.562 330.489 326.226C331.742 323.889 333.447 322.109 335.605 320.886C337.763 319.653 340.199 319.037 342.913 319.037C345.608 319.037 348.034 319.653 350.192 320.886C352.359 322.109 354.07 323.889 355.322 326.226C356.585 328.562 357.217 331.396 357.217 334.727ZM350.669 334.727C350.669 332.57 350.346 330.75 349.7 329.268C349.063 327.787 348.163 326.663 347 325.898C345.837 325.132 344.474 324.749 342.913 324.749C341.352 324.749 339.99 325.132 338.827 325.898C337.663 326.663 336.759 327.787 336.112 329.268C335.476 330.75 335.158 332.57 335.158 334.727C335.158 336.885 335.476 338.705 336.112 340.186C336.759 341.668 337.663 342.791 338.827 343.557C339.99 344.322 341.352 344.705 342.913 344.705C344.474 344.705 345.837 344.322 347 343.557C348.163 342.791 349.063 341.668 349.7 340.186C350.346 338.705 350.669 336.885 350.669 334.727ZM380.868 319.455H387.326V339.291C387.326 341.518 386.794 343.467 385.73 345.138C384.676 346.808 383.199 348.111 381.3 349.045C379.401 349.97 377.189 350.433 374.663 350.433C372.128 350.433 369.91 349.97 368.011 349.045C366.112 348.111 364.635 346.808 363.581 345.138C362.528 343.467 362.001 341.518 362.001 339.291V319.455H368.459V338.739C368.459 339.903 368.712 340.937 369.219 341.842C369.736 342.746 370.462 343.457 371.397 343.974C372.331 344.491 373.42 344.75 374.663 344.75C375.916 344.75 377.005 344.491 377.93 343.974C378.864 343.457 379.585 342.746 380.092 341.842C380.609 340.937 380.868 339.903 380.868 338.739V319.455ZM397.904 350H390.984L401.528 319.455H409.851L420.381 350H413.46L405.809 326.435H405.57L397.904 350ZM397.472 337.994H413.818V343.035H397.472V337.994ZM449.606 319.455V350H444.028L430.739 330.775H430.515V350H424.057V319.455H429.725L442.909 338.665H443.178V319.455H449.606ZM453.779 324.779V319.455H478.865V324.779H469.514V350H463.13V324.779H453.779ZM482.997 350V319.455H495.048C497.355 319.455 499.323 319.867 500.954 320.692C502.595 321.508 503.843 322.666 504.698 324.168C505.563 325.659 505.995 327.414 505.995 329.433C505.995 331.461 505.558 333.206 504.683 334.668C503.808 336.119 502.54 337.233 500.879 338.009C499.229 338.784 497.23 339.172 494.884 339.172H486.815V333.982H493.84C495.073 333.982 496.097 333.812 496.912 333.474C497.727 333.136 498.334 332.629 498.732 331.953C499.139 331.277 499.343 330.437 499.343 329.433C499.343 328.418 499.139 327.563 498.732 326.867C498.334 326.171 497.722 325.644 496.897 325.286C496.082 324.918 495.053 324.734 493.81 324.734H489.455V350H482.997ZM499.492 336.099L507.084 350H499.955L492.527 336.099H499.492ZM515.824 350H508.904L519.448 319.455H527.771L538.301 350H531.38L523.729 326.435H523.49L515.824 350ZM515.392 337.994H531.738V343.035H515.392V337.994ZM548.435 319.455V350H541.977V319.455H548.435ZM553.749 350V319.455H560.207V344.675H573.302V350H553.749Z" fill="white"/>
<g clip-path="url(#clip0_6_19)">
<path d="M462.163 165.86L499.288 187.75C499.655 187.97 499.985 188.213 500.278 188.481L500.328 188.525L500.911 188.938C502.973 190.483 504.674 192.46 505.894 194.73C507.113 197 507.823 199.51 507.973 202.083L508 203.199V243.261C508 249.724 504.464 255.669 499.074 258.623L461.651 282.284C456.261 285.243 449.738 285.243 444.051 282.108L407.229 258.804C404.44 257.276 402.113 255.028 400.49 252.294C398.866 249.56 398.007 246.441 398 243.261V203.194C397.997 200.044 398.838 196.951 400.433 194.235C402.029 191.52 404.322 189.28 407.075 187.75L444.337 165.777C447.071 164.278 450.141 163.498 453.258 163.513C456.376 163.527 459.438 164.335 462.157 165.86M458.637 195.246C456.967 194.285 455.075 193.772 453.148 193.759C451.22 193.745 449.322 194.231 447.637 195.169L431.011 205.091C429.33 206.053 427.934 207.443 426.966 209.121C425.997 210.798 425.492 212.702 425.5 214.639V232.668C425.499 234.632 426.024 236.56 427.02 238.253C428.016 239.946 429.447 241.341 431.165 242.293L447.368 252.688C450.981 254.707 455.013 254.707 458.335 252.87L475.132 242.117C478.333 240.346 480.5 236.661 480.5 232.663V214.639L480.473 213.737C480.358 212.259 479.945 210.819 479.26 209.505C478.575 208.19 477.631 207.027 476.485 206.087L475.979 205.702L475.671 205.443C475.502 205.316 475.326 205.198 475.143 205.091L458.637 195.246Z" fill="#B87EFB"/>
</g>
<defs>
<clipPath id="clip0_6_19">
<rect width="132" height="132" fill="white" transform="translate(387 158)"/>
</clipPath>
</defs>
</svg>
